# xmcd
#
# Track frame offsets: 
#        150
#        13782
#        28434
#        41352
#        56706
#        71564
#        82104
#        99858
#        116906
#        132103
#        145885
#
# Disc length: 2169 seconds
#
# Revision: 0
# Processed by: cddbd v1.5.2PL0 Copyright (c) Steve Scherf et al.
# Submitted via: ExactAudioCopy v1.3
#
DISCID=9b08770b
DTITLE=Catherine Britt - Boneshaker
DYEAR=2015
DGENRE=Country
TTITLE0=Boneshaker
TTITLE1=Good To Bad
TTITLE2=Happier Day
TTITLE3=Nice Girl
TTITLE4=Take It Easy
TTITLE5=When You're Ready
TTITLE6=We're All Waiting
TTITLE7=The Way That It Goes
TTITLE8=Working Class Man
TTITLE9=Let Your Hair Down
TTITLE10=You And Me Against The World (feat. steve earle)
EXTD=
EXTT0=
EXTT1=
EXTT2=
EXTT3=
EXTT4=
EXTT5=
EXTT6=
EXTT7=
EXTT8=
EXTT9=
EXTT10=
PLAYORDER=
